<?xml version="1.0" encoding="UTF-8" standalone="no"?>
<!-- Created with Inkscape (http://www.inkscape.org/) -->

<svg
   xmlns:dc="http://purl.org/dc/elements/1.1/"
   xmlns:cc="http://creativecommons.org/ns#"
   xmlns:rdf="http://www.w3.org/1999/02/22-rdf-syntax-ns#"
   xmlns:svg="http://www.w3.org/2000/svg"
   xmlns="http://www.w3.org/2000/svg"
   xmlns:sodipodi="http://sodipodi.sourceforge.net/DTD/sodipodi-0.dtd"
   xmlns:inkscape="http://www.inkscape.org/namespaces/inkscape"
   width="58.091713mm"
   height="49.68018mm"
   viewBox="0 0 205.83678 176.03213"
   id="svg2"
   version="1.1"
   inkscape:version="0.91 r13725"
   sodipodi:docname="cell-7.svg">
  <defs
     id="defs4" />
  <sodipodi:namedview
     id="base"
     pagecolor="#ffffff"
     bordercolor="#666666"
     borderopacity="1.0"
     inkscape:pageopacity="0.0"
     inkscape:pageshadow="2"
     inkscape:zoom="2.0520572"
     inkscape:cx="-63.143027"
     inkscape:cy="86.831624"
     inkscape:document-units="px"
     inkscape:current-layer="layer1"
     showgrid="true"
     inkscape:window-width="1916"
     inkscape:window-height="1034"
     inkscape:window-x="0"
     inkscape:window-y="22"
     inkscape:window-maximized="1"
     fit-margin-top="5"
     fit-margin-left="5"
     fit-margin-right="5"
     fit-margin-bottom="5">
    <inkscape:grid
       type="xygrid"
       id="grid4194"
       originx="-282.26005"
       originy="-141.66467"
       spacingx="50"
       spacingy="50.000001"
       empcolor="#ff0000"
       empopacity="0.25098039"
       empspacing="3" />
  </sodipodi:namedview>
  <metadata
     id="metadata7">
    <rdf:RDF>
      <cc:Work
         rdf:about="">
        <dc:format>image/svg+xml</dc:format>
        <dc:type
           rdf:resource="http://purl.org/dc/dcmitype/StillImage" />
        <dc:title></dc:title>
      </cc:Work>
    </rdf:RDF>
  </metadata>
  <g
     inkscape:label="Layer 1"
     inkscape:groupmode="layer"
     id="layer1"
     style="display:inline"
     transform="translate(-314.92108,-284.37335)">
    <rect
       style="opacity:1;fill:#64b292;fill-opacity:0.94117647;stroke:#2c5948;stroke-width:1.97696197;stroke-linejoin:miter;stroke-miterlimit:4;stroke-dasharray:none;stroke-dashoffset:0;stroke-opacity:0.94117647"
       id="rect4172"
       width="168.42674"
       height="138.6221"
       x="333.6261"
       y="303.07837"
       rx="14.653984"
       ry="15.002492" />
    <path
       style="opacity:1;fill:#000000;fill-opacity:0.62745098;fill-rule:nonzero;stroke:#000000;stroke-width:2;stroke-linejoin:miter;stroke-miterlimit:4;stroke-dasharray:none;stroke-dashoffset:0;stroke-opacity:0.62745098"
       id="path4346"
       d="m 459.36064,337.17399 c 0.022,3.46301 0.48169,6.90463 0.92828,10.33313 0.91029,5.15498 1.63141,10.33876 2.14686,15.54754 0.19898,2.28569 0.11142,1.19693 0.26663,3.26596 0,0 -5.14999,2.66296 -5.14999,2.66296 l 0,0 c -0.0937,-2.08716 -0.0364,-0.98922 -0.17699,-3.29353 -0.41518,-5.21405 -1.07421,-10.40428 -2.11032,-15.53446 -0.5123,-3.41639 -0.9426,-6.84404 -1.18493,-10.29108 0,0 5.28046,-2.69052 5.28046,-2.69052 z"
       inkscape:connector-curvature="0" />
    <path
       style="opacity:1;fill:#000000;fill-opacity:0.62745098;fill-rule:nonzero;stroke:#000000;stroke-width:2;stroke-linejoin:miter;stroke-miterlimit:4;stroke-dasharray:none;stroke-dashoffset:0;stroke-opacity:0.62745098"
       id="path4352"
       d="m 485.36428,335.11232 c -0.0983,2.47587 -0.30922,4.94509 -0.41236,7.42144 -0.0392,2.55594 -0.15591,5.10384 -0.34514,7.65265 -0.25027,2.13978 -0.0865,4.28344 0.0295,6.42451 0.10753,2.05701 0.15265,4.11665 0.19265,6.17589 0.0147,1.51323 0.0211,3.02655 0.028,4.53983 0.003,0.56461 0.004,1.12922 0.005,1.69384 0,0 -5.28055,2.6901 -5.28055,2.6901 l 0,0 c 0.002,-0.56659 0.004,-1.13318 0.007,-1.69976 0.008,-1.51591 0.0164,-3.03184 0.003,-4.54775 -0.009,-2.05609 -0.041,-4.11258 -0.15613,-6.16587 -0.12339,-2.16541 -0.31188,-4.33531 -0.0528,-6.49952 0.20331,-2.54768 0.35453,-5.09243 0.38124,-7.64926 0.11293,-2.44626 0.30327,-4.8946 0.31232,-7.34186 0,0 5.28774,-2.69424 5.28774,-2.69424 z"
       inkscape:connector-curvature="0" />
    <path
       style="display:none;opacity:1;fill:#000000;fill-opacity:0.62745098;fill-rule:nonzero;stroke:#000000;stroke-width:2;stroke-linejoin:miter;stroke-miterlimit:4;stroke-dasharray:none;stroke-dashoffset:0;stroke-opacity:0.62745098"
       id="path4372"
       d="m 277.95449,561.70706 c 3.25038,0.92164 6.60449,1.41899 9.9269,2.01003 4.41,0.6066 8.74893,1.66379 13.17881,2.13865 0.91891,0.0985 1.84242,0.14788 2.76363,0.22182 4.09214,0.17601 8.13322,-0.39337 12.13588,-1.16189 1.28089,-0.32809 2.60309,-0.58529 3.80479,-1.16197 0.17988,-0.0863 0.68822,-0.404 0.51434,-0.30615 -1.56039,0.87816 -3.11602,1.76476 -4.67403,2.64714 0,0 5.50606,-2.20797 5.50606,-2.20797 l 0,0 c -4.41469,2.64432 -5.40032,3.70776 -9.78185,4.52546 -3.98625,0.71993 -8.02058,1.14399 -12.07893,0.93019 -5.38839,-0.47265 -10.67892,-1.53372 -16.01883,-2.36606 -3.38033,-0.5592 -6.754,-1.14207 -10.1092,-1.83934 0,0 4.83243,-3.42991 4.83243,-3.42991 z"
       inkscape:connector-curvature="0" />
    <ellipse
       style="opacity:1;fill:#000000;fill-opacity:0.62745098;fill-rule:nonzero;stroke:#000000;stroke-width:2;stroke-linejoin:miter;stroke-miterlimit:4;stroke-dasharray:none;stroke-dashoffset:0;stroke-opacity:0.62745098"
       id="path4475"
       cx="474.22043"
       cy="413.48096"
       rx="8.5"
       ry="8" />
  </g>
</svg>
