<?xml version="1.0" encoding="UTF-8" standalone="no"?>
<!-- Created with Inkscape (http://www.inkscape.org/) -->

<svg
   xmlns:dc="http://purl.org/dc/elements/1.1/"
   xmlns:cc="http://creativecommons.org/ns#"
   xmlns:rdf="http://www.w3.org/1999/02/22-rdf-syntax-ns#"
   xmlns:svg="http://www.w3.org/2000/svg"
   xmlns="http://www.w3.org/2000/svg"
   xmlns:sodipodi="http://sodipodi.sourceforge.net/DTD/sodipodi-0.dtd"
   xmlns:inkscape="http://www.inkscape.org/namespaces/inkscape"
   width="265mm"
   height="120mm"
   viewBox="0 0 938.97639 425.19685"
   id="svg2"
   version="1.1"
   inkscape:version="0.91 r13725"
   sodipodi:docname="cell-5.svg">
  <defs
     id="defs4" />
  <sodipodi:namedview
     id="base"
     pagecolor="#ffffff"
     bordercolor="#666666"
     borderopacity="1.0"
     inkscape:pageopacity="0.0"
     inkscape:pageshadow="2"
     inkscape:zoom="54.9375"
     inkscape:cx="298.5577"
     inkscape:cy="297.11839"
     inkscape:document-units="px"
     inkscape:current-layer="layer1"
     showgrid="true"
     inkscape:window-width="1916"
     inkscape:window-height="1034"
     inkscape:window-x="0"
     inkscape:window-y="22"
     inkscape:window-maximized="0"
     fit-margin-top="0"
     fit-margin-left="0"
     fit-margin-right="0"
     fit-margin-bottom="0">
    <inkscape:grid
       type="xygrid"
       id="grid4194"
       originx="0"
       originy="0"
       empspacing="3"
       spacingx="50.000001"
       spacingy="50.000001"
       empcolor="#ff0000"
       empopacity="0.25098039" />
  </sodipodi:namedview>
  <metadata
     id="metadata7">
    <rdf:RDF>
      <cc:Work
         rdf:about="">
        <dc:format>image/svg+xml</dc:format>
        <dc:type
           rdf:resource="http://purl.org/dc/dcmitype/StillImage" />
        <dc:title></dc:title>
      </cc:Work>
    </rdf:RDF>
  </metadata>
  <g
     inkscape:label="Layer 1"
     inkscape:groupmode="layer"
     id="layer1"
     style="display:inline"
     transform="translate(-47.161696,-217.41528)">
    <rect
       style="opacity:1;fill:#64b292;fill-opacity:0.94117647;stroke:#2c5948;stroke-width:1.97696197;stroke-linejoin:miter;stroke-miterlimit:4;stroke-dasharray:none;stroke-dashoffset:0;stroke-opacity:0.94117647"
       id="rect4172"
       width="168.42674"
       height="138.6221"
       x="348.16922"
       y="343.6153"
       rx="14.653984"
       ry="15.002492" />
    <path
       style="opacity:1;fill:#000000;fill-opacity:0.62745098;fill-rule:nonzero;stroke:#000000;stroke-width:2;stroke-linejoin:miter;stroke-miterlimit:4;stroke-dasharray:none;stroke-dashoffset:0;stroke-opacity:0.62745098"
       id="path4346"
       d="m 473.90379,377.71091 c 0.022,3.46301 0.48169,6.90463 0.92828,10.33313 0.91029,5.15498 1.63141,10.33876 2.14686,15.54754 0.19898,2.28569 0.11142,1.19693 0.26663,3.26596 0,0 -5.14999,2.66296 -5.14999,2.66296 l 0,0 c -0.0937,-2.08716 -0.0364,-0.98922 -0.17699,-3.29353 -0.41518,-5.21405 -1.07421,-10.40428 -2.11032,-15.53446 -0.5123,-3.41639 -0.9426,-6.84404 -1.18493,-10.29108 0,0 5.28046,-2.69052 5.28046,-2.69052 z"
       inkscape:connector-curvature="0" />
    <path
       style="opacity:1;fill:#000000;fill-opacity:0.62745098;fill-rule:nonzero;stroke:#000000;stroke-width:2;stroke-linejoin:miter;stroke-miterlimit:4;stroke-dasharray:none;stroke-dashoffset:0;stroke-opacity:0.62745098"
       id="path4352"
       d="m 499.90743,375.64924 c -0.0983,2.47587 -0.30922,4.94509 -0.41236,7.42144 -0.0392,2.55594 -0.15591,5.10384 -0.34514,7.65265 -0.25027,2.13978 -0.0865,4.28344 0.0295,6.42451 0.10753,2.05701 0.15265,4.11665 0.19265,6.17589 0.0147,1.51323 0.0211,3.02655 0.028,4.53983 0.003,0.56461 0.004,1.12922 0.005,1.69384 0,0 -5.28055,2.6901 -5.28055,2.6901 l 0,0 c 0.002,-0.56659 0.004,-1.13318 0.007,-1.69976 0.008,-1.51591 0.0164,-3.03184 0.003,-4.54775 -0.009,-2.05609 -0.041,-4.11258 -0.15613,-6.16587 -0.12339,-2.16541 -0.31188,-4.33531 -0.0528,-6.49952 0.20331,-2.54768 0.35453,-5.09243 0.38124,-7.64926 0.11293,-2.44626 0.30327,-4.8946 0.31232,-7.34186 0,0 5.28774,-2.69424 5.28774,-2.69424 z"
       inkscape:connector-curvature="0" />
    <path
       style="display:none;opacity:1;fill:#000000;fill-opacity:0.62745098;fill-rule:nonzero;stroke:#000000;stroke-width:2;stroke-linejoin:miter;stroke-miterlimit:4;stroke-dasharray:none;stroke-dashoffset:0;stroke-opacity:0.62745098"
       id="path4372"
       d="m 277.95449,561.70706 c 3.25038,0.92164 6.60449,1.41899 9.9269,2.01003 4.41,0.6066 8.74893,1.66379 13.17881,2.13865 0.91891,0.0985 1.84242,0.14788 2.76363,0.22182 4.09214,0.17601 8.13322,-0.39337 12.13588,-1.16189 1.28089,-0.32809 2.60309,-0.58529 3.80479,-1.16197 0.17988,-0.0863 0.68822,-0.404 0.51434,-0.30615 -1.56039,0.87816 -3.11602,1.76476 -4.67403,2.64714 0,0 5.50606,-2.20797 5.50606,-2.20797 l 0,0 c -4.41469,2.64432 -5.40032,3.70776 -9.78185,4.52546 -3.98625,0.71993 -8.02058,1.14399 -12.07893,0.93019 -5.38839,-0.47265 -10.67892,-1.53372 -16.01883,-2.36606 -3.38033,-0.5592 -6.754,-1.14207 -10.1092,-1.83934 0,0 4.83243,-3.42991 4.83243,-3.42991 z"
       inkscape:connector-curvature="0" />
    <ellipse
       style="opacity:1;fill:#000000;fill-opacity:0.62745098;fill-rule:nonzero;stroke:#000000;stroke-width:2;stroke-linejoin:miter;stroke-miterlimit:4;stroke-dasharray:none;stroke-dashoffset:0;stroke-opacity:0.62745098"
       id="path4475"
       cx="488.76355"
       cy="454.01788"
       rx="8.5"
       ry="8" />
    <path
       sodipodi:type="star"
       style="opacity:1;fill:#ff0000;fill-opacity:0.62745098;fill-rule:nonzero;stroke:#000000;stroke-width:2;stroke-linejoin:miter;stroke-miterlimit:4;stroke-dasharray:none;stroke-dashoffset:0;stroke-opacity:0.62745098"
       id="path4712"
       sodipodi:sides="5"
       sodipodi:cx="300.26359"
       sodipodi:cy="509.51784"
       sodipodi:r1="13.462912"
       sodipodi:r2="10.891725"
       sodipodi:arg1="-1.1902899"
       sodipodi:arg2="-0.56197142"
       inkscape:flatsided="true"
       inkscape:rounded="0"
       inkscape:randomized="0"
       d="m 305.26358,497.01785 8.43329,13.39257 -10.13106,12.15907 -14.69463,-5.87785 1.04928,-15.79178 z"
       inkscape:transform-center-x="-1.0204454"
       inkscape:transform-center-y="0.27581935" />
    <path
       sodipodi:type="star"
       style="opacity:1;fill:#ff0000;fill-opacity:0.62745098;fill-rule:nonzero;stroke:#000000;stroke-width:2;stroke-linejoin:miter;stroke-miterlimit:4;stroke-dasharray:none;stroke-dashoffset:0;stroke-opacity:0.62745098"
       id="path4714"
       sodipodi:sides="5"
       sodipodi:cx="312.76359"
       sodipodi:cy="441.51787"
       sodipodi:r1="13.435029"
       sodipodi:r2="10.869167"
       sodipodi:arg1="0.78539816"
       sodipodi:arg2="1.4137167"
       inkscape:flatsided="true"
       inkscape:rounded="0"
       inkscape:randomized="0"
       d="m 322.26358,451.01788 -15.59938,2.4707 -7.17024,-14.0724 11.16792,-11.16792 14.0724,7.17025 z"
       inkscape:transform-center-x="0.6494615"
       inkscape:transform-center-y="-0.6494615" />
    <path
       sodipodi:type="star"
       style="opacity:1;fill:#ff0000;fill-opacity:0.62745098;fill-rule:nonzero;stroke:#000000;stroke-width:2;stroke-linejoin:miter;stroke-miterlimit:4;stroke-dasharray:none;stroke-dashoffset:0;stroke-opacity:0.62745098"
       id="path4716"
       sodipodi:sides="5"
       sodipodi:cx="347.26359"
       sodipodi:cy="498.01787"
       sodipodi:r1="10.307764"
       sodipodi:r2="8.3391562"
       sodipodi:arg1="-0.88847977"
       sodipodi:arg2="-0.26016124"
       inkscape:flatsided="true"
       inkscape:rounded="0"
       inkscape:randomized="0"
       d="m 353.76358,490.01788 3.11706,11.70973 -10.17339,6.58301 -9.40456,-7.6412 4.36105,-11.30554 z"
       inkscape:transform-center-x="0.17191494"
       inkscape:transform-center-y="0.81936839" />
    <path
       sodipodi:type="star"
       style="opacity:1;fill:#ff0000;fill-opacity:0.62745098;fill-rule:nonzero;stroke:#000000;stroke-width:2;stroke-linejoin:miter;stroke-miterlimit:4;stroke-dasharray:none;stroke-dashoffset:0;stroke-opacity:0.62745098"
       id="path4718"
       sodipodi:sides="5"
       sodipodi:cx="353.76359"
       sodipodi:cy="457.01787"
       sodipodi:r1="9.8488579"
       sodipodi:r2="7.9678931"
       sodipodi:arg1="0.41822433"
       sodipodi:arg2="1.0465429"
       inkscape:flatsided="true"
       inkscape:rounded="0"
       inkscape:randomized="0"
       d="m 362.76358,461.01788 -10.02307,5.79558 -8.60922,-7.74158 4.70228,-10.58013 11.51539,1.20269 z"
       inkscape:transform-center-x="0.31614698"
       inkscape:transform-center-y="0.63472069" />
    <path
       sodipodi:type="star"
       style="opacity:1;fill:#ff0000;fill-opacity:0.62745098;fill-rule:nonzero;stroke:#000000;stroke-width:2;stroke-linejoin:miter;stroke-miterlimit:4;stroke-dasharray:none;stroke-dashoffset:0;stroke-opacity:0.62745098"
       id="path4720"
       sodipodi:sides="5"
       sodipodi:cx="367.76359"
       sodipodi:cy="414.51787"
       sodipodi:r1="9.0138779"
       sodipodi:r2="7.2923808"
       sodipodi:arg1="1.9100889"
       sodipodi:arg2="2.5384075"
       inkscape:flatsided="true"
       inkscape:rounded="0"
       inkscape:randomized="0"
       d="m 364.76358,423.01788 -6.01103,-8.72652 6.44191,-8.41348 9.99235,3.52671 -0.2663,10.59311 z"
       inkscape:transform-center-x="0.79390287"
       inkscape:transform-center-y="-0.070000105" />
    <path
       sodipodi:type="star"
       style="opacity:1;fill:#ff0000;fill-opacity:0.62745098;fill-rule:nonzero;stroke:#000000;stroke-width:2;stroke-linejoin:miter;stroke-miterlimit:4;stroke-dasharray:none;stroke-dashoffset:0;stroke-opacity:0.62745098"
       id="path4722"
       sodipodi:sides="5"
       sodipodi:cx="239.26357"
       sodipodi:cy="464.01787"
       sodipodi:r1="8.276473"
       sodipodi:r2="6.695807"
       sodipodi:arg1="0.43662716"
       sodipodi:arg2="1.0649457"
       inkscape:flatsided="true"
       inkscape:rounded="0"
       inkscape:randomized="0"
       d="m 246.76357,467.51788 -8.51108,4.71449 -7.1138,-6.63766 4.1145,-8.81678 9.6567,1.18859 z"
       inkscape:transform-center-x="0.31243792"
       inkscape:transform-center-y="0.48726724" />
    <path
       sodipodi:type="star"
       style="opacity:1;fill:#ff0000;fill-opacity:0.62745098;fill-rule:nonzero;stroke:#000000;stroke-width:2;stroke-linejoin:miter;stroke-miterlimit:4;stroke-dasharray:none;stroke-dashoffset:0;stroke-opacity:0.62745098"
       id="path4726"
       sodipodi:sides="5"
       sodipodi:cx="341.26359"
       sodipodi:cy="409.01787"
       sodipodi:r1="6.3245554"
       sodipodi:r2="5.1166725"
       sodipodi:arg1="0.32175055"
       sodipodi:arg2="0.95006909"
       inkscape:flatsided="true"
       inkscape:rounded="0"
       inkscape:randomized="0"
       d="m 347.26358,411.01788 -6.04801,4.32438 -5.98166,-4.4157 2.35114,-7.05342 7.43475,0.0564 z"
       inkscape:transform-center-x="0.014836235"
       inkscape:transform-center-y="0.58981379" />
    <path
       sodipodi:type="star"
       style="opacity:1;fill:#ff0000;fill-opacity:0.62745098;fill-rule:nonzero;stroke:#000000;stroke-width:2;stroke-linejoin:miter;stroke-miterlimit:4;stroke-dasharray:none;stroke-dashoffset:0;stroke-opacity:0.62745098"
       id="path4732"
       sodipodi:sides="5"
       sodipodi:cx="299.26359"
       sodipodi:cy="410.01787"
       sodipodi:r1="5.5901699"
       sodipodi:r2="4.5225425"
       sodipodi:arg1="-0.1798535"
       sodipodi:arg2="0.44846503"
       inkscape:flatsided="true"
       inkscape:rounded="0"
       inkscape:randomized="0"
       d="m 304.76358,409.01788 -2.84935,5.9218 -6.51246,-0.87996 -1.17557,-6.46564 5.78592,-3.11602 z"
       inkscape:transform-center-x="-0.23131064"
       inkscape:transform-center-y="-0.30901699" />
    <path
       sodipodi:type="star"
       style="opacity:1;fill:#ff0000;fill-opacity:0.62745098;fill-rule:nonzero;stroke:#000000;stroke-width:2;stroke-linejoin:miter;stroke-miterlimit:4;stroke-dasharray:none;stroke-dashoffset:0;stroke-opacity:0.62745098"
       id="path4734"
       sodipodi:sides="5"
       sodipodi:cx="326.76359"
       sodipodi:cy="389.0179"
       sodipodi:r1="6.0207973"
       sodipodi:r2="4.8709273"
       sodipodi:arg1="-0.72664234"
       sodipodi:arg2="-0.09832381"
       inkscape:flatsided="true"
       inkscape:rounded="0"
       inkscape:randomized="0"
       d="m 331.26358,385.01791 0.6948,7.04369 -6.48424,2.83742 -4.70228,-5.29007 3.57807,-6.10686 z"
       inkscape:transform-center-x="0.39845747"
       inkscape:transform-center-y="0.18263966" />
  </g>
</svg>
