<?xml version="1.0" encoding="UTF-8" standalone="no"?>
<!-- Created with Inkscape (http://www.inkscape.org/) -->

<svg
   xmlns:dc="http://purl.org/dc/elements/1.1/"
   xmlns:cc="http://creativecommons.org/ns#"
   xmlns:rdf="http://www.w3.org/1999/02/22-rdf-syntax-ns#"
   xmlns:svg="http://www.w3.org/2000/svg"
   xmlns="http://www.w3.org/2000/svg"
   xmlns:sodipodi="http://sodipodi.sourceforge.net/DTD/sodipodi-0.dtd"
   xmlns:inkscape="http://www.inkscape.org/namespaces/inkscape"
   width="265mm"
   height="120mm"
   viewBox="0 0 938.97638 425.19685"
   id="svg2"
   version="1.1"
   inkscape:version="0.91 r13725"
   sodipodi:docname="cell-2.svg">
  <defs
     id="defs4" />
  <sodipodi:namedview
     id="base"
     pagecolor="#ffffff"
     bordercolor="#666666"
     borderopacity="1.0"
     inkscape:pageopacity="0.0"
     inkscape:pageshadow="2"
     inkscape:zoom="1.7167969"
     inkscape:cx="256.63707"
     inkscape:cy="246.25881"
     inkscape:document-units="px"
     inkscape:current-layer="layer1"
     showgrid="true"
     inkscape:window-width="1916"
     inkscape:window-height="1034"
     inkscape:window-x="0"
     inkscape:window-y="22"
     inkscape:window-maximized="1"
     fit-margin-top="0"
     fit-margin-left="0"
     fit-margin-right="0"
     fit-margin-bottom="0">
    <inkscape:grid
       type="xygrid"
       id="grid4194"
       originx="0"
       originy="0"
       spacingx="50"
       spacingy="50.000001"
       empcolor="#ff0000"
       empopacity="0.25098039"
       empspacing="3" />
  </sodipodi:namedview>
  <metadata
     id="metadata7">
    <rdf:RDF>
      <cc:Work
         rdf:about="">
        <dc:format>image/svg+xml</dc:format>
        <dc:type
           rdf:resource="http://purl.org/dc/dcmitype/StillImage" />
        <dc:title></dc:title>
      </cc:Work>
    </rdf:RDF>
  </metadata>
  <g
     inkscape:label="Layer 1"
     inkscape:groupmode="layer"
     id="layer1"
     style="display:inline"
     transform="translate(-32.661033,-176.87331)">
    <rect
       style="opacity:1;fill:#64b292;fill-opacity:0.94117647;stroke:#2c5948;stroke-width:1.97696197;stroke-linejoin:miter;stroke-miterlimit:4;stroke-dasharray:none;stroke-dashoffset:0;stroke-opacity:0.94117647"
       id="rect4172"
       width="168.42674"
       height="138.6221"
       x="333.6261"
       y="303.07837"
       rx="14.653984"
       ry="15.002492" />
    <path
       style="opacity:1;fill:#000000;fill-opacity:0.62745098;fill-rule:nonzero;stroke:#000000;stroke-width:2;stroke-linejoin:miter;stroke-miterlimit:4;stroke-dasharray:none;stroke-dashoffset:0;stroke-opacity:0.62745098"
       id="path4346"
       d="m 459.36064,337.17399 c 0.022,3.46301 0.48169,6.90463 0.92828,10.33313 0.91029,5.15498 1.63141,10.33876 2.14686,15.54754 0.19898,2.28569 0.11142,1.19693 0.26663,3.26596 0,0 -5.14999,2.66296 -5.14999,2.66296 l 0,0 c -0.0937,-2.08716 -0.0364,-0.98922 -0.17699,-3.29353 -0.41518,-5.21405 -1.07421,-10.40428 -2.11032,-15.53446 -0.5123,-3.41639 -0.9426,-6.84404 -1.18493,-10.29108 0,0 5.28046,-2.69052 5.28046,-2.69052 z"
       inkscape:connector-curvature="0" />
    <path
       style="opacity:1;fill:#000000;fill-opacity:0.62745098;fill-rule:nonzero;stroke:#000000;stroke-width:2;stroke-linejoin:miter;stroke-miterlimit:4;stroke-dasharray:none;stroke-dashoffset:0;stroke-opacity:0.62745098"
       id="path4352"
       d="m 485.36428,335.11232 c -0.0983,2.47587 -0.30922,4.94509 -0.41236,7.42144 -0.0392,2.55594 -0.15591,5.10384 -0.34514,7.65265 -0.25027,2.13978 -0.0865,4.28344 0.0295,6.42451 0.10753,2.05701 0.15265,4.11665 0.19265,6.17589 0.0147,1.51323 0.0211,3.02655 0.028,4.53983 0.003,0.56461 0.004,1.12922 0.005,1.69384 0,0 -5.28055,2.6901 -5.28055,2.6901 l 0,0 c 0.002,-0.56659 0.004,-1.13318 0.007,-1.69976 0.008,-1.51591 0.0164,-3.03184 0.003,-4.54775 -0.009,-2.05609 -0.041,-4.11258 -0.15613,-6.16587 -0.12339,-2.16541 -0.31188,-4.33531 -0.0528,-6.49952 0.20331,-2.54768 0.35453,-5.09243 0.38124,-7.64926 0.11293,-2.44626 0.30327,-4.8946 0.31232,-7.34186 0,0 5.28774,-2.69424 5.28774,-2.69424 z"
       inkscape:connector-curvature="0" />
    <path
       style="display:none;opacity:1;fill:#000000;fill-opacity:0.62745098;fill-rule:nonzero;stroke:#000000;stroke-width:2;stroke-linejoin:miter;stroke-miterlimit:4;stroke-dasharray:none;stroke-dashoffset:0;stroke-opacity:0.62745098"
       id="path4372"
       d="m 277.95449,561.70706 c 3.25038,0.92164 6.60449,1.41899 9.9269,2.01003 4.41,0.6066 8.74893,1.66379 13.17881,2.13865 0.91891,0.0985 1.84242,0.14788 2.76363,0.22182 4.09214,0.17601 8.13322,-0.39337 12.13588,-1.16189 1.28089,-0.32809 2.60309,-0.58529 3.80479,-1.16197 0.17988,-0.0863 0.68822,-0.404 0.51434,-0.30615 -1.56039,0.87816 -3.11602,1.76476 -4.67403,2.64714 0,0 5.50606,-2.20797 5.50606,-2.20797 l 0,0 c -4.41469,2.64432 -5.40032,3.70776 -9.78185,4.52546 -3.98625,0.71993 -8.02058,1.14399 -12.07893,0.93019 -5.38839,-0.47265 -10.67892,-1.53372 -16.01883,-2.36606 -3.38033,-0.5592 -6.754,-1.14207 -10.1092,-1.83934 0,0 4.83243,-3.42991 4.83243,-3.42991 z"
       inkscape:connector-curvature="0" />
    <path
       style="opacity:1;fill:#ffff00;fill-opacity:0.62745098;fill-rule:nonzero;stroke:#000000;stroke-width:2;stroke-linejoin:miter;stroke-miterlimit:4;stroke-dasharray:none;stroke-dashoffset:0;stroke-opacity:0.62745098"
       id="path4423"
       d="m 207.56409,201.81203 c 0.80207,1.05457 1.65924,2.06565 2.47269,3.11119 3.88129,4.98877 2.29964,3.13089 6.88223,8.97849 4.04304,5.15912 8.1445,10.27222 12.19642,15.42437 2.58967,3.27336 5.16798,6.55575 7.76903,9.82008 7.43029,9.32505 10.37639,13.13559 18.39815,22.12806 5.04457,5.65503 15.81892,17.07119 21.11,22.37324 3.67836,3.68599 7.48751,7.2391 11.23127,10.85866 12.21041,11.64577 24.29978,23.45572 35.64521,35.95586 1.84379,2.03145 3.62189,4.12156 5.43283,6.18235 0,0 -4.18,2.51561 -4.18,2.51561 l 0,0 c -1.73249,-2.1022 -3.42382,-4.239 -5.19748,-6.30658 -10.95208,-12.76709 -22.90351,-24.6435 -34.99076,-36.32343 -3.74557,-3.62352 -7.54848,-7.18868 -11.23669,-10.87056 -5.88367,-5.87356 -15.61703,-16.10685 -21.22247,-22.33011 -7.92372,-8.79705 -11.2096,-12.93534 -18.66762,-21.98305 -2.66202,-3.22942 -5.31708,-6.46458 -7.97562,-9.69687 -12.3435,-14.96182 -1.57018,-1.9954 -12.67799,-15.13801 -3.31295,-3.91982 -6.50817,-7.94932 -10.07848,-11.6437 0,0 5.08928,-3.0556 5.08928,-3.0556 z"
       inkscape:connector-curvature="0" />
    <path
       style="opacity:1;fill:#ffff00;fill-opacity:0.62745098;fill-rule:nonzero;stroke:#000000;stroke-width:2;stroke-linejoin:miter;stroke-miterlimit:4;stroke-dasharray:none;stroke-dashoffset:0;stroke-opacity:0.62745098"
       id="path4425"
       d="m 259.49174,182.01944 c 0.95698,4.0653 4.05469,7.18689 6.64799,10.28157 9.23142,11.01619 -0.0933,-0.23592 10.21856,12.26183 13.68187,17.27284 28.57375,33.52473 42.97086,50.19052 3.63285,4.2053 7.21637,8.45296 10.82456,12.67944 12.45138,15.11433 8.82646,10.49663 20.72436,25.79358 8.54242,10.98288 10.44554,13.38482 18.48477,24.54325 6.76453,9.38913 9.04063,12.83313 15.46156,22.21833 5.26315,7.80032 10.39731,15.68616 15.56543,23.54938 1.67374,2.54658 3.31585,5.12831 5.03175,7.64849 0,0 -5.13751,2.88548 -5.13751,2.88548 l 0,0 c -0.0529,-0.25626 -0.0514,-0.53014 -0.15867,-0.76878 -0.89686,-1.99457 -3.16536,-5.7455 -4.05827,-7.24736 -4.80076,-8.07477 -9.72452,-16.07934 -14.88721,-23.9286 -6.33414,-9.49193 -8.49575,-12.87037 -15.21481,-22.34691 -7.55316,-10.65295 -10.26954,-14.17896 -18.32191,-24.62515 -11.62735,-15.08396 -8.42964,-10.95571 -20.67587,-25.80251 -3.62759,-4.21254 -7.21677,-8.45848 -10.88278,-12.63763 -14.5637,-16.60219 -29.80558,-32.61486 -43.84583,-49.67453 -7.65176,-8.85737 -3.46378,-4.11392 -10.60924,-12.01932 -2.76112,-3.05477 -6.03069,-6.08149 -7.32155,-10.12107 0,0 5.18381,-2.88001 5.18381,-2.88001 z"
       inkscape:connector-curvature="0" />
    <path
       style="opacity:1;fill:#ffff00;fill-opacity:0.62745098;fill-rule:nonzero;stroke:#000000;stroke-width:2;stroke-linejoin:miter;stroke-miterlimit:4;stroke-dasharray:none;stroke-dashoffset:0;stroke-opacity:0.62745098"
       id="path4427"
       d="m 221.53043,241.70188 c 3.4896,3.98978 7.61687,7.3428 11.26997,11.17597 3.00068,3.14859 6.32896,7.07589 9.1523,10.33396 12.39584,14.51021 24.3079,29.43258 36.01483,44.50171 8.89393,11.64772 17.05276,23.82997 24.85768,36.22668 1.985,3.15281 3.98616,6.29635 5.89859,9.49369 1.90055,3.17746 3.69249,6.41864 5.53873,9.62796 9.00575,16.33484 16.8302,33.27601 24.95932,50.05323 1.72394,3.66536 3.54529,7.28187 5.3921,10.88596 0.43538,0.84966 0.84859,1.94512 1.46626,2.71118 0,0 -5.13954,2.9914 -5.13954,2.9914 l 0,0 c -0.46705,-0.94452 -0.80684,-1.96003 -1.22143,-2.92695 -1.60233,-3.73699 -3.28199,-7.44145 -4.8907,-11.17567 -7.64486,-17.00302 -15.54279,-33.91241 -24.44811,-50.29887 -1.84055,-3.20641 -3.6202,-6.44856 -5.52166,-9.61923 -1.91559,-3.19422 -3.94079,-6.32144 -5.92739,-9.47197 -7.80646,-12.38015 -15.90801,-24.58376 -24.8568,-36.17703 -9.80465,-12.50681 -3.35099,-4.38369 -13.19202,-16.51038 -7.59482,-9.35879 -15.16161,-18.74625 -23.20384,-27.72944 -3.12894,-3.48928 -6.05094,-6.8484 -9.35217,-10.165 -3.78483,-3.80245 -7.9964,-7.13546 -11.80669,-10.90939 0,0 5.01057,-3.01781 5.01057,-3.01781 z"
       inkscape:connector-curvature="0" />
    <path
       style="opacity:1;fill:#ffff00;fill-opacity:0.62745098;fill-rule:nonzero;stroke:#000000;stroke-width:2;stroke-linejoin:miter;stroke-miterlimit:4;stroke-dasharray:none;stroke-dashoffset:0;stroke-opacity:0.62745098"
       id="path4429"
       d="m 263.38949,219.7482 c 0.49469,0.58983 0.97833,1.18911 1.48407,1.76949 3.27503,3.75825 6.61876,7.45834 9.79308,11.30434 3.18663,3.86092 7.55806,9.49078 10.58826,13.35465 11.61399,15.50672 22.76456,31.35698 34.39473,46.85126 2.49507,3.32405 5.03596,6.61347 7.55394,9.92021 2.45878,3.14021 4.90102,6.29343 7.37634,9.42062 5.68274,7.17927 7.67109,9.77817 13.69291,16.38038 5.05305,5.54008 10.47261,10.68281 15.92846,15.81645 5.19168,5.04049 10.40844,10.08458 16.16718,14.47991 4.16265,3.14042 7.52137,7.18546 10.65025,11.32309 1.10913,1.66205 2.21827,3.34661 3.16868,5.10659 0.49215,1.05679 0.89541,2.14781 1.39052,3.20391 0.46772,0.87166 0.23585,0.4349 0.69561,1.31029 0,0 -5.12119,2.92811 -5.12119,2.92811 l 0,0 c -0.45673,-0.87821 -0.22107,-0.43581 -0.70767,-1.32685 -0.5095,-1.03972 -0.94114,-2.11029 -1.39409,-3.17454 -0.90866,-1.75027 -1.90027,-3.46821 -2.9727,-5.12253 -2.97881,-4.19136 -6.30757,-8.17566 -10.47081,-11.24562 -5.69936,-4.44493 -10.76451,-9.60261 -15.78694,-14.78672 -5.30754,-5.24931 -10.57885,-10.51151 -15.5092,-16.12433 -5.66633,-6.45067 -8.08731,-9.62402 -13.47997,-16.53425 -2.45288,-3.14316 -4.87937,-6.30683 -7.31906,-9.46024 -14.24764,-18.74203 -28.00927,-37.84681 -42.34088,-56.52559 -7.24513,-8.92582 -14.59507,-17.77891 -22.80389,-25.84806 0,0 5.02237,-3.02057 5.02237,-3.02057 z"
       inkscape:connector-curvature="0" />
    <ellipse
       style="opacity:1;fill:#000000;fill-opacity:0.62745098;fill-rule:nonzero;stroke:#000000;stroke-width:2;stroke-linejoin:miter;stroke-miterlimit:4;stroke-dasharray:none;stroke-dashoffset:0;stroke-opacity:0.62745098"
       id="path4475"
       cx="474.22043"
       cy="413.48096"
       rx="8.5"
       ry="8" />
  </g>
</svg>
