<?xml version="1.0" encoding="UTF-8" standalone="no"?>
<!-- Created with Inkscape (http://www.inkscape.org/) -->

<svg
   xmlns:dc="http://purl.org/dc/elements/1.1/"
   xmlns:cc="http://creativecommons.org/ns#"
   xmlns:rdf="http://www.w3.org/1999/02/22-rdf-syntax-ns#"
   xmlns:svg="http://www.w3.org/2000/svg"
   xmlns="http://www.w3.org/2000/svg"
   xmlns:sodipodi="http://sodipodi.sourceforge.net/DTD/sodipodi-0.dtd"
   xmlns:inkscape="http://www.inkscape.org/namespaces/inkscape"
   width="265mm"
   height="120mm"
   viewBox="0 0 938.97638 425.19685"
   id="svg2"
   version="1.1"
   inkscape:version="0.91 r13725"
   sodipodi:docname="cell-6.svg">
  <defs
     id="defs4" />
  <sodipodi:namedview
     id="base"
     pagecolor="#ffffff"
     bordercolor="#666666"
     borderopacity="1.0"
     inkscape:pageopacity="0.0"
     inkscape:pageshadow="2"
     inkscape:zoom="1.3412475"
     inkscape:cx="534.35083"
     inkscape:cy="45.118298"
     inkscape:document-units="px"
     inkscape:current-layer="layer1"
     showgrid="true"
     inkscape:window-width="956"
     inkscape:window-height="1034"
     inkscape:window-x="0"
     inkscape:window-y="22"
     inkscape:window-maximized="0"
     fit-margin-top="0"
     fit-margin-left="0"
     fit-margin-right="0"
     fit-margin-bottom="0"
     showguides="false"
     objecttolerance="20"
     inkscape:snap-perpendicular="false"
     inkscape:snap-tangential="false">
    <inkscape:grid
       type="xygrid"
       id="grid4194"
       originx="0"
       originy="0"
       spacingy="50.000001"
       spacingx="50"
       empspacing="3"
       empcolor="#ff0000"
       empopacity="0.25098039" />
  </sodipodi:namedview>
  <metadata
     id="metadata7">
    <rdf:RDF>
      <cc:Work
         rdf:about="">
        <dc:format>image/svg+xml</dc:format>
        <dc:type
           rdf:resource="http://purl.org/dc/dcmitype/StillImage" />
        <dc:title />
      </cc:Work>
    </rdf:RDF>
  </metadata>
  <g
     inkscape:label="Layer 1"
     inkscape:groupmode="layer"
     id="layer1"
     style="display:inline"
     transform="translate(-164.41719,-263.02776)">
    <rect
       style="opacity:1;fill:#6485b2;fill-opacity:0.94117647;stroke:#2c5948;stroke-width:1.97696197;stroke-linejoin:miter;stroke-miterlimit:4;stroke-dasharray:none;stroke-dashoffset:0;stroke-opacity:0.94117647"
       id="rect4172"
       width="168.42674"
       height="138.6221"
       x="465.40933"
       y="389.21204"
       rx="14.653984"
       ry="15.002492" />
    <path
       style="opacity:1;fill:#000000;fill-opacity:0.62745098;fill-rule:nonzero;stroke:#000000;stroke-width:2;stroke-linejoin:miter;stroke-miterlimit:4;stroke-dasharray:none;stroke-dashoffset:0;stroke-opacity:0.62745098"
       id="path4346"
       d="m 591.1439,423.30765 c 0.022,3.46301 0.48169,6.90463 0.92828,10.33313 0.91029,5.15498 1.63141,10.33876 2.14686,15.54754 0.19898,2.28569 0.11142,1.19693 0.26663,3.26596 0,0 -5.14999,2.66296 -5.14999,2.66296 l 0,0 c -0.0937,-2.08716 -0.0364,-0.98922 -0.17699,-3.29353 -0.41518,-5.21405 -1.07421,-10.40428 -2.11032,-15.53446 -0.5123,-3.41639 -0.9426,-6.84404 -1.18493,-10.29108 0,0 5.28046,-2.69052 5.28046,-2.69052 z"
       inkscape:connector-curvature="0" />
    <path
       style="opacity:1;fill:#000000;fill-opacity:0.62745098;fill-rule:nonzero;stroke:#000000;stroke-width:2;stroke-linejoin:miter;stroke-miterlimit:4;stroke-dasharray:none;stroke-dashoffset:0;stroke-opacity:0.62745098"
       id="path4352"
       d="m 617.14754,421.24598 c -0.0983,2.47587 -0.30922,4.94509 -0.41236,7.42144 -0.0392,2.55594 -0.15591,5.10384 -0.34514,7.65265 -0.25027,2.13978 -0.0865,4.28344 0.0295,6.42451 0.10753,2.05701 0.15265,4.11665 0.19265,6.17589 0.0147,1.51323 0.0211,3.02655 0.028,4.53983 0.003,0.56461 0.004,1.12922 0.005,1.69384 0,0 -5.28055,2.6901 -5.28055,2.6901 l 0,0 c 0.002,-0.56659 0.004,-1.13318 0.007,-1.69976 0.008,-1.51591 0.0164,-3.03184 0.003,-4.54775 -0.009,-2.05609 -0.041,-4.11258 -0.15613,-6.16587 -0.12339,-2.16541 -0.31188,-4.33531 -0.0528,-6.49952 0.20331,-2.54768 0.35453,-5.09243 0.38124,-7.64926 0.11293,-2.44626 0.30327,-4.8946 0.31232,-7.34186 0,0 5.28774,-2.69424 5.28774,-2.69424 z"
       inkscape:connector-curvature="0" />
    <path
       style="display:none;opacity:1;fill:#000000;fill-opacity:0.62745098;fill-rule:nonzero;stroke:#000000;stroke-width:2;stroke-linejoin:miter;stroke-miterlimit:4;stroke-dasharray:none;stroke-dashoffset:0;stroke-opacity:0.62745098"
       id="path4372"
       d="m 277.95449,561.70706 c 3.25038,0.92164 6.60449,1.41899 9.9269,2.01003 4.41,0.6066 8.74893,1.66379 13.17881,2.13865 0.91891,0.0985 1.84242,0.14788 2.76363,0.22182 4.09214,0.17601 8.13322,-0.39337 12.13588,-1.16189 1.28089,-0.32809 2.60309,-0.58529 3.80479,-1.16197 0.17988,-0.0863 0.68822,-0.404 0.51434,-0.30615 -1.56039,0.87816 -3.11602,1.76476 -4.67403,2.64714 0,0 5.50606,-2.20797 5.50606,-2.20797 l 0,0 c -4.41469,2.64432 -5.40032,3.70776 -9.78185,4.52546 -3.98625,0.71993 -8.02058,1.14399 -12.07893,0.93019 -5.38839,-0.47265 -10.67892,-1.53372 -16.01883,-2.36606 -3.38033,-0.5592 -6.754,-1.14207 -10.1092,-1.83934 0,0 4.83243,-3.42991 4.83243,-3.42991 z"
       inkscape:connector-curvature="0" />
    <path
       style="opacity:1;fill:#000000;fill-opacity:0.62745098;fill-rule:nonzero;stroke:#000000;stroke-width:2;stroke-linejoin:miter;stroke-miterlimit:4;stroke-dasharray:none;stroke-dashoffset:0;stroke-opacity:0.62745098"
       id="path4771"
       d="m 573.49805,500.83523 c 1.28959,-1.74224 2.53143,-3.51789 3.86243,-5.22954 1.66272,-2.25031 3.64405,-4.23122 5.67014,-6.15011 1.96713,-1.81752 4.20435,-3.25811 6.66651,-4.29491 1.98741,-0.90702 4.099,-1.27961 6.25805,-1.45588 2.92591,-0.20024 5.84785,0.24844 8.70915,0.81897 2.62775,0.74836 5.29715,1.34282 7.92782,2.07866 1.60441,0.47989 3.23812,0.84212 4.81627,1.40606 1.09238,0.46125 2.13094,1.05864 3.27379,1.38964 1.23883,0.23087 2.39297,0.70443 3.52402,1.24382 1.37666,0.64961 2.52831,1.63561 3.58746,2.71043 0.69528,0.80467 1.13289,1.78201 1.68701,2.67424 0.31427,0.56465 0.53988,1.16742 0.80198,1.75571 1.72191,3.8775 -3.76171,6.31264 -5.48362,2.43514 l 0,0 c -0.15064,-0.34073 -0.34622,-0.6745 -0.42259,-1.03699 -0.32504,-0.53019 -0.73369,-1.11598 -0.91157,-1.67339 -0.52301,-0.58708 -1.14092,-1.08912 -1.84147,-1.4495 -0.87057,-0.41521 -1.74607,-0.75967 -2.70732,-0.92528 -1.23366,-0.39123 -2.41742,-0.90888 -3.57271,-1.49037 -1.41941,-0.54623 -2.93644,-0.78154 -4.37718,-1.26402 -2.48196,-0.70416 -5.01037,-1.24081 -7.48576,-1.97211 -2.31514,-0.47117 -4.68437,-0.8587 -7.05412,-0.71954 -1.54551,0.11583 -3.03922,0.35334 -4.45649,1.02732 -1.79933,0.70005 -3.37836,1.82597 -4.81834,3.10299 -1.80963,1.70549 -3.57908,3.46816 -5.05747,5.47604 -1.37451,1.76143 -2.63344,3.60664 -3.98666,5.38373 -2.71608,3.25928 -7.3254,-0.58182 -4.60933,-3.84111 z"
       inkscape:connector-curvature="0" />
    <path
       style="display:inline;opacity:1;fill:#0000ff;fill-opacity:0.62745098;fill-rule:nonzero;stroke:#000000;stroke-width:2;stroke-linejoin:miter;stroke-miterlimit:4;stroke-dasharray:none;stroke-dashoffset:0;stroke-opacity:0.62745098"
       id="path4564"
       d="m 673.14766,351.58963 c 4.49519,2.3422 9.24385,4.17859 13.90924,6.15387 3.98304,1.76358 7.91262,3.65955 11.95738,5.28177 4.76738,1.81162 2.40108,0.8827 7.09929,2.78583 7.53776,3.23244 14.93039,6.82777 22.13869,10.73967 3.93342,2.04824 7.74382,4.30179 11.45215,6.72867 2.06444,1.33617 4.00385,1.43014 6.12053,0.0484 0.56211,-0.36694 2.15956,-1.95294 2.6645,-2.44109 3.21973,-3.61229 6.32351,-7.32531 9.53518,-10.94524 2.47893,-2.80619 4.89792,-5.7049 7.85051,-8.03036 0.25617,-0.17165 0.50564,-0.35374 0.76851,-0.51494 0.42711,-0.26191 0.87338,-0.49129 1.31357,-0.73056 0.15603,-0.0848 0.62899,-0.30817 0.49867,-0.18753 -0.23873,0.0248 -0.47747,0.0495 -0.71621,0.0743 -0.0623,4e-4 -0.23398,-0.0399 -0.18705,0.001 0.38511,0.33691 0.91148,0.46571 1.35893,0.71392 0.7086,0.39306 1.39178,0.83031 2.08928,1.24275 1.19113,0.58362 4.01475,1.95457 5.07273,2.53134 1.01782,0.55487 2.00479,1.16452 3.00719,1.74679 1.27507,0.71045 2.54056,1.43837 3.8252,2.13135 4.46886,2.41064 5.46017,2.84034 10.20925,5.18013 2.04905,1.01663 4.10086,2.02769 6.14714,3.04987 8.53101,4.26155 5.10222,2.61491 13.83631,6.88239 6.65733,3.25278 8.62913,4.11568 15.28343,7.55024 2.68617,1.38644 5.34369,2.82772 8.01553,4.24158 7.99367,4.36816 15.86418,8.95704 23.7448,13.52453 2.375,1.37652 4.76611,2.72611 7.11585,4.14534 4.60428,2.78096 8.42472,5.32901 12.91958,8.26277 10.13144,6.75699 20.2498,13.5631 29.93343,20.95417 2.36373,1.7644 4.61498,3.66768 6.83636,5.60523 3.19853,2.78736 7.14045,-1.73605 3.94192,-4.52341 l 0,0 c -2.32127,-2.02118 -4.67177,-4.00889 -7.13916,-5.85223 -9.80422,-7.4754 -20.03591,-14.37508 -30.29346,-21.20846 -4.67089,-3.04776 -8.38776,-5.5291 -13.1785,-8.42252 -2.35712,-1.42362 -4.75571,-2.77744 -7.13815,-4.15827 -7.94386,-4.60414 -15.87768,-9.22962 -23.93673,-13.63061 -2.7089,-1.43298 -5.40336,-2.89359 -8.12671,-4.29893 -6.70015,-3.45749 -8.6476,-4.30854 -15.32757,-7.5722 -8.68732,-4.2444 -5.2939,-2.61529 -13.82025,-6.87445 -2.05154,-1.0248 -4.10862,-2.03845 -6.16294,-3.05767 -4.60472,-2.26685 -5.60941,-2.70429 -9.94023,-5.03908 -1.25556,-0.67689 -2.49232,-1.38806 -3.73848,-2.08209 -1.10118,-0.63582 -2.1867,-1.29958 -3.30355,-1.90746 -1.44813,-0.78819 -3.20718,-1.61406 -4.72912,-2.34303 -1.03917,-0.61446 -2.06881,-1.23024 -3.13781,-1.79012 -0.55628,-0.29136 -1.27458,-0.73083 -1.8742,-0.85988 -0.53044,-0.11416 -1.08184,-0.0849 -1.62276,-0.12739 -1.95633,0.42931 -3.6577,1.4973 -5.27952,2.64697 -3.20444,2.56746 -5.92399,5.64571 -8.60422,8.7446 -3.10992,3.50612 -6.13305,7.08667 -9.21817,10.61426 -0.39204,0.3794 -0.79336,0.74943 -1.17611,1.13819 -0.14752,0.14983 -0.33463,0.28145 -0.41348,0.47636 -0.0486,0.12026 0.48338,0.1458 0.75577,0.26505 0.0647,0.0283 0.20211,0.18793 0.13642,0.16205 -0.22472,-0.0885 -0.42044,-0.23783 -0.63066,-0.35674 -3.84698,-2.51755 -7.79984,-4.85598 -11.87871,-6.98326 -7.40951,-4.01085 -14.99716,-7.71632 -22.7461,-11.02612 -1.21216,-0.49048 -2.42432,-0.98096 -3.63648,-1.47144 -1.12323,-0.42526 -2.25482,-0.82905 -3.36969,-1.27578 -4.04713,-1.62169 -7.97589,-3.5244 -11.9628,-5.28407 -4.54882,-1.92588 -9.18416,-3.70885 -13.56524,-5.99523 -3.79473,-1.89737 -6.47801,3.4692 -2.68328,5.36656 z"
       inkscape:connector-curvature="0" />
    <path
       style="display:inline;opacity:1;fill:#0000ff;fill-opacity:0.62745098;fill-rule:nonzero;stroke:#000000;stroke-width:2;stroke-linejoin:miter;stroke-miterlimit:4;stroke-dasharray:none;stroke-dashoffset:0;stroke-opacity:0.62745098"
       id="path4566"
       d="m 662.18855,359.08748 c 2.12391,1.92959 4.58935,3.39338 7.01413,4.90215 5.08216,3.22004 9.75917,7.02708 14.52498,10.68672 3.59569,2.67734 7.03007,5.57997 10.78223,8.04328 2.49573,1.63847 3.14914,1.93147 5.73092,3.34644 5.4512,3.0409 11.10945,5.68064 16.75023,8.34545 3.02263,1.36855 5.9305,2.98659 9.00433,4.24234 1.24099,0.50698 2.5059,0.95334 3.75648,1.43617 2.2547,0.75792 4.23095,2.05643 6.284,3.21444 1.00756,0.94102 2.07935,1.72413 3.33585,2.29962 2.80733,1.07964 4.78239,-0.31715 6.69854,-2.21089 1.91228,-2.47568 4.27039,-4.53172 6.51794,-6.69021 2.3038,-2.36012 4.85576,-4.45002 7.30339,-6.65272 0.43555,-0.2647 1.76162,-1.64064 2.20979,-1.7686 0.27181,-0.0776 -0.47894,0.30908 -0.74443,0.40615 -0.0161,0.025 -0.0727,0.0578 -0.0485,0.075 0.66106,0.46954 2.15204,0.9096 2.89978,1.19644 1.22235,0.46891 2.44907,0.92633 3.67209,1.39348 6.85423,2.6354 13.97192,4.45291 20.96787,6.65368 6.14985,1.96016 12.04798,4.59638 18.01091,7.04347 0.87224,0.35796 8.2519,3.30984 9.15426,3.67105 1.52077,0.62754 3.03848,1.26254 4.56231,1.88262 4.85216,1.97448 9.71105,3.90879 14.47706,6.0883 2.75985,1.26208 6.52706,3.11049 9.25816,4.43647 1.49473,0.70776 2.99624,1.40138 4.48419,2.12327 3.97658,1.92925 7.90732,3.9528 11.90384,5.84187 9.90547,4.68211 -2.19207,-1.15178 6.96204,3.2832 4.37458,1.94295 8.64003,4.13294 13.08413,5.91634 1.83305,0.77851 3.57151,1.74519 5.39459,2.54374 1.59971,0.75034 3.07228,1.70537 4.49234,2.74717 0.73797,0.5472 1.33674,1.23636 1.96522,1.89782 2.92314,3.07494 7.27177,-1.05899 4.34864,-4.13394 l 0,0 c -0.87447,-0.91938 -1.73649,-1.85128 -2.76722,-2.60344 -1.77653,-1.30066 -3.63137,-2.48082 -5.6359,-3.40536 -1.88182,-0.82054 -3.66666,-1.84047 -5.57008,-2.61715 -4.31745,-1.71904 -8.44438,-3.87587 -12.69657,-5.74527 -9.75316,-4.72133 3.1026,1.47391 -6.95878,-3.28162 -4.01354,-1.897 -7.96127,-3.92866 -11.9547,-5.86625 -1.47037,-0.71341 -2.95425,-1.39863 -4.43138,-2.09794 -2.86538,-1.39095 -6.56182,-3.20555 -9.45311,-4.52685 -4.81171,-2.19891 -9.71587,-4.15362 -14.61398,-6.14678 -1.5434,-0.62804 -3.08068,-1.27099 -4.62102,-1.90648 -0.76392,-0.3058 -8.2972,-3.3194 -9.06697,-3.63531 -6.13283,-2.51694 -12.20126,-5.22264 -18.52843,-7.23271 -6.88189,-2.16247 -13.88169,-3.95235 -20.6266,-6.53498 -1.62948,-0.62233 -3.26566,-1.22782 -4.88722,-1.87061 -0.72784,-0.28852 -1.42852,-0.6517 -2.17646,-0.88318 -0.44532,-0.13783 -0.9104,-0.20099 -1.36561,-0.30148 -0.56555,0.0474 -1.14555,0.007 -1.69666,0.14207 -1.58992,0.3911 -2.77588,1.81175 -4.02135,2.75954 -2.48991,2.24962 -5.09653,4.37352 -7.44181,6.78152 -2.28606,2.19564 -4.69864,4.28598 -6.63791,6.80873 -0.23238,0.25004 -0.50006,0.46679 -0.7227,0.72554 -0.179,0.20805 1.1491,0.11772 0.65132,0.17408 -1.03748,-0.22767 -1.72706,-1.68453 -2.74627,-2.0094 -2.3068,-1.29205 -4.53727,-2.72858 -7.0639,-3.5819 -1.17336,-0.45288 -2.36091,-0.86935 -3.52649,-1.34187 -3.01853,-1.22369 -5.86263,-2.83199 -8.83219,-4.1643 -5.53466,-2.61461 -11.08847,-5.20056 -16.43629,-8.1857 -2.31177,-1.25875 -2.95098,-1.5481 -5.18637,-3.01001 -3.67594,-2.40402 -7.0262,-5.25997 -10.54941,-7.87325 -4.92176,-3.77911 -9.75482,-7.70599 -15.00937,-11.02218 -2.03804,-1.26808 -4.11478,-2.47986 -5.94129,-4.05045 -3,-3 -7.24264,1.24264 -4.24264,4.24264 z"
       inkscape:connector-curvature="0" />
    <path
       style="display:inline;opacity:1;fill:#0000ff;fill-opacity:0.62745098;fill-rule:nonzero;stroke:#000000;stroke-width:2;stroke-linejoin:miter;stroke-miterlimit:4;stroke-dasharray:none;stroke-dashoffset:0;stroke-opacity:0.62745098"
       id="path4568"
       d="m 656.43593,377.65553 c 0.86348,0.36403 1.62537,0.67677 2.4903,1.09405 4.0573,1.95738 -0.34385,-0.03 4.29619,2.13879 2.49724,1.1672 3.01189,1.3384 5.61407,2.40098 4.56606,1.77454 9.25034,3.22656 13.80062,5.04393 1.81604,0.72532 5.39486,2.29982 7.19166,3.08216 7.33533,3.21757 14.85273,6.01008 22.35201,8.82014 6.01315,2.21238 11.92694,4.68338 17.78479,7.27607 4.11774,1.8284 8.14646,3.85114 12.10729,5.99665 1.74162,1.15527 3.69976,1.95635 5.45058,3.08847 0.79143,0.34729 1.27516,1.15174 2.06584,1.50069 0.47759,0.21078 0.98828,0.33676 1.48241,0.50514 0.51009,-0.0258 1.02714,0.0103 1.53027,-0.0775 1.79022,-0.31255 3.63704,-1.93905 5.02674,-3.01454 2.45584,-2.28927 4.57009,-4.91421 6.74197,-7.46755 0.53989,-0.66161 1.12504,-1.28418 1.67741,-1.93497 0.1553,-0.18297 0.74039,-1.00657 1.11485,-1.21981 0.0612,-0.0348 0.0911,0.10915 0.14809,0.15051 -0.0111,0.0393 -0.0708,0.10174 -0.0333,0.11779 0.43926,0.18795 0.94181,0.1623 1.41022,0.25646 1.07074,0.21524 2.10412,0.51011 3.14459,0.83908 3.97955,1.21931 7.82756,2.81663 11.71695,4.28736 0.86147,0.31045 1.72027,0.6284 2.5844,0.93134 1.98876,0.6972 4.01142,1.29807 5.986,2.03448 3.74938,1.39831 7.36353,3.144 10.98353,4.83893 8.99594,4.42907 17.73211,9.35176 26.62113,13.9859 7.37554,4.33591 15.55399,6.9397 23.66075,9.52363 5.81345,1.60905 11.58868,3.36473 17.2639,5.4103 4.88923,1.73565 9.76313,3.5099 14.64529,5.26541 1.46627,0.46742 2.90182,1.02194 4.34275,1.56027 3.97435,1.48476 6.07413,-4.13582 2.09977,-5.62059 l 0,0 c -1.46414,-0.54696 -2.9235,-1.10862 -4.41254,-1.58585 -4.88188,-1.75496 -9.75535,-3.52915 -14.64404,-5.26496 -5.74705,-2.06416 -11.58671,-3.86122 -17.47417,-5.48158 -4.51503,-1.43708 -2.78337,-0.85543 -7.36871,-2.44167 -2.09894,-0.72611 -5.58113,-1.90395 -7.62623,-2.78066 -2.871,-1.23076 -4.95228,-2.42578 -7.71321,-3.90476 -8.9651,-4.67323 -17.77428,-9.6412 -26.85129,-14.0997 -3.82503,-1.78957 -7.64261,-3.61095 -11.60352,-5.08803 -1.9382,-0.72278 -3.92369,-1.31224 -5.87599,-1.99605 -0.83505,-0.29248 -1.66494,-0.59949 -2.49741,-0.89924 -4.00018,-1.50967 -7.95644,-3.15305 -12.05004,-4.40213 -2.53229,-0.78203 -5.15517,-1.53122 -7.82926,-1.28989 -0.48939,0.15957 -1.00247,0.25943 -1.46817,0.47871 -1.96792,0.92663 -3.07391,2.92599 -4.52204,4.44223 -1.90543,2.2401 -3.77656,4.51867 -5.84531,6.61116 -0.53568,0.41511 -1.05845,0.84776 -1.61042,1.24096 -0.29442,0.20974 -0.64983,0.33658 -0.91469,0.5826 -0.0219,0.0203 0.0551,0.0231 0.0826,0.0346 0.22311,0.0271 0.44622,0.0543 0.66933,0.0814 0.22067,0.11689 0.44167,0.23316 0.66201,0.35068 0.15511,0.0827 -0.29667,-0.19026 -0.43211,-0.30232 -0.53625,-0.44374 -1.06311,-0.90283 -1.68354,-1.23019 -1.88571,-1.17522 -3.92105,-2.09752 -5.79839,-3.2922 -4.10152,-2.22025 -8.27264,-4.31485 -12.53631,-6.20732 -5.96449,-2.63889 -11.9854,-5.15503 -18.10756,-7.40783 -7.4018,-2.77324 -14.82225,-5.52757 -22.06229,-8.70288 -2.03658,-0.88648 -5.42468,-2.37917 -7.46748,-3.19419 -4.5024,-1.79633 -9.13307,-3.24224 -13.65457,-4.9866 -2.39539,-0.97494 -2.9478,-1.16337 -5.24629,-2.23643 -2.4438,-1.1409 -4.78879,-2.49313 -7.3127,-3.45938 -3.97251,-1.48969 -6.07925,4.12829 -2.10674,5.61798 z"
       inkscape:connector-curvature="0" />
    <path
       style="display:inline;opacity:1;fill:#0000ff;fill-opacity:0.62745098;fill-rule:nonzero;stroke:#000000;stroke-width:2;stroke-linejoin:miter;stroke-miterlimit:4;stroke-dasharray:none;stroke-dashoffset:0;stroke-opacity:0.62745098"
       id="path4570"
       d="m 668.60533,339.1713 c 2.82723,0.46794 5.56103,1.24656 8.28598,2.12421 3.22032,0.9575 6.22785,2.40726 9.24897,3.84354 2.43197,1.15619 3.25968,1.48809 5.77106,2.5768 5.99868,2.27791 12.03648,4.42219 17.90091,7.03367 5.62324,2.67372 11.06903,5.71587 16.83129,8.08639 2.93576,0.98746 5.70137,2.33744 8.47663,3.688 1.61595,0.80788 3.283,1.51162 4.94502,2.21894 1.1786,0.47631 2.36313,0.94172 3.55996,1.37079 2.32938,0.77863 3.83225,0.37006 5.84919,-1.02534 2.82752,-2.09828 4.58214,-5.16379 6.30065,-8.15945 1.94963,-3.41553 3.47611,-7.05083 5.47151,-10.44148 1.05292,-1.78916 1.54156,-2.4371 2.71457,-4.14548 1.87438,-2.31582 3.61914,-5.23739 6.21863,-6.83424 0.006,-0.20136 -0.59193,0.47672 -0.39599,0.62781 0.30989,0.23896 0.68867,0.37196 1.02895,0.5652 0.59678,0.33891 1.20012,0.66737 1.78208,1.03114 1.68518,1.0534 3.36103,2.27231 4.97953,3.41178 0.98991,0.68819 6.04863,4.22542 6.91726,4.74001 2.9175,1.72836 6.29564,3.23033 9.38172,4.62021 4.53079,2.04053 3.94093,1.75044 8.49182,3.58402 11.19491,3.97941 21.95618,9.0269 32.63957,14.19486 11.13329,5.37576 21.28525,12.45732 31.83738,18.83866 6.14522,3.47553 12.33156,6.87268 18.40278,10.47656 3.61883,2.13636 7.39067,4.01465 11.2739,5.61938 2.4729,0.8778 4.46007,2.60255 6.62973,4.01314 1.34402,0.96005 2.69378,1.91443 3.96385,2.97173 1.24666,0.93059 2.5761,1.77119 3.92753,2.54583 1.06193,0.56603 2.19374,0.98825 3.19428,1.66243 0.64241,0.63512 1.89504,0.71926 2.37456,1.52081 0.87547,0.95709 1.81596,1.84793 2.78774,2.70553 1.04765,0.95429 2.29657,1.64572 3.52167,2.34303 0.15362,0.0907 0.30724,0.1814 0.46086,0.2721 3.65539,2.15363 6.70108,-3.01588 3.04569,-5.1695 l 0,0 c -0.1853,-0.10898 -0.3706,-0.21796 -0.5559,-0.32693 -0.8736,-0.48765 -1.77279,-0.96634 -2.52204,-1.63481 -0.84355,-0.72742 -1.63554,-1.50772 -2.39177,-2.32586 -1.02373,-1.00791 -2.17013,-1.74535 -3.43819,-2.40676 -1.11764,-0.7186 -2.30155,-1.29587 -3.50631,-1.85307 -1.05382,-0.59559 -2.08291,-1.25235 -3.06701,-1.95043 -1.45664,-1.20522 -2.99283,-2.30869 -4.5398,-3.39433 -2.48485,-1.59079 -4.76008,-3.54925 -7.59795,-4.51997 -3.6185,-1.48793 -7.12725,-3.24598 -10.49821,-5.23181 -6.05733,-3.59552 -12.22645,-6.99021 -18.36105,-10.45156 -10.71299,-6.47568 -21.01883,-13.66436 -32.32935,-19.1056 -10.80605,-5.22538 -21.6902,-10.33146 -33.01163,-14.35948 -4.50867,-1.81283 -3.69633,-1.43514 -8.23314,-3.47278 -2.3956,-1.07595 -6.22526,-2.77881 -8.51916,-4.13529 -0.85274,-0.50427 -5.86573,-4.00951 -6.82682,-4.67763 -2.44909,-1.7213 -4.87326,-3.50875 -7.53198,-4.90279 -1.29372,-0.67834 -2.7688,-1.44548 -4.29715,-1.40058 -0.8079,0.0237 -1.56836,0.3915 -2.35254,0.58725 -0.39575,0.27488 -0.80872,0.5265 -1.18726,0.82464 -2.65222,2.0889 -4.61219,4.96177 -6.64656,7.60691 -1.32491,1.93891 -1.81673,2.58703 -3.00901,4.62162 -1.97671,3.37318 -3.5162,6.9722 -5.43482,10.37639 -1.27899,2.24277 -2.52143,4.62194 -4.58178,6.25762 -0.12057,0.0931 -0.36818,0.12699 -0.3617,0.27915 0.005,0.12432 0.2485,-0.0295 0.37268,-0.0216 0.06,0.004 0.20781,0.0997 0.14783,0.10306 -0.0855,0.005 -0.44693,-0.0932 -0.52252,-0.1123 -1.08393,-0.37151 -2.14559,-0.81505 -3.21099,-1.23528 -1.57014,-0.6651 -3.14358,-1.33096 -4.66904,-2.09341 -2.89121,-1.40105 -5.77067,-2.81023 -8.82397,-3.84329 -5.71467,-2.32842 -11.08111,-5.40605 -16.66745,-8.01644 -5.88455,-2.61291 -11.9277,-4.79596 -17.9535,-7.05675 -5.17888,-2.24216 -10.16704,-4.9328 -15.56922,-6.62699 -2.78371,-0.89302 -5.57791,-1.73637 -8.47365,-2.18116 -4.0794,-1.16554 -5.72772,4.6036 -1.64832,5.76914 z"
       inkscape:connector-curvature="0" />
    <text
       xml:space="preserve"
       style="font-style:normal;font-weight:normal;font-size:22.5px;line-height:125%;font-family:Sans;letter-spacing:0px;word-spacing:0px;display:inline;fill:#000000;fill-opacity:1;stroke:none;stroke-width:1px;stroke-linecap:butt;stroke-linejoin:miter;stroke-opacity:1"
       x="667.42065"
       y="442.73322"
       id="text4155"
       sodipodi:linespacing="125%"><tspan
         sodipodi:role="line"
         x="667.42065"
         y="442.73322"
         id="tspan4157"><tspan
           x="667.42065"
           y="442.73322"
           style="font-style:normal;font-variant:normal;font-weight:500;font-stretch:normal;font-family:ubuntu;-inkscape-font-specification:'ubuntu Medium'"
           id="tspan4159">Pathway  A</tspan></tspan></text>
    <text
       xml:space="preserve"
       style="font-style:normal;font-weight:normal;font-size:22.5px;line-height:125%;font-family:Sans;letter-spacing:0px;word-spacing:0px;display:inline;fill:#000000;fill-opacity:1;stroke:none;stroke-width:1px;stroke-linecap:butt;stroke-linejoin:miter;stroke-opacity:1"
       x="664.54956"
       y="524.89709"
       id="text4161"
       sodipodi:linespacing="125%"><tspan
         sodipodi:role="line"
         x="664.54956"
         y="524.89709"
         id="tspan4163"><tspan
           x="664.54956"
           y="524.89709"
           style="font-style:normal;font-variant:normal;font-weight:500;font-stretch:normal;font-family:ubuntu;-inkscape-font-specification:'ubuntu Medium';fill:#000000;fill-opacity:1"
           id="tspan4165">Pathway  B</tspan></tspan></text>
    <path
       style="display:inline;opacity:1;fill:#ff0000;fill-opacity:0.62745098;fill-rule:nonzero;stroke:#000000;stroke-width:2;stroke-linejoin:miter;stroke-miterlimit:4;stroke-dasharray:none;stroke-dashoffset:0;stroke-opacity:0.62745098"
       id="path4676"
       d="m 659.90743,585.45185 c 5.53994,-0.79435 11.06987,-1.60932 16.63491,-2.21357 9.55732,-0.97467 19.03105,-2.56815 28.56463,-3.72948 9.85142,-1.14326 19.68896,-2.37538 29.50921,-3.75955 6.30926,-0.85649 12.63778,-1.57325 18.99413,-1.95539 6.67196,-0.3298 13.33652,-0.7627 20.01303,-1.01012 5.99904,0.0749 11.9041,-0.97647 17.82498,-1.76574 3.74485,-0.35279 7.47116,-0.87442 11.2107,-1.27244 2.32022,-0.22348 4.64747,-0.40319 6.93736,-0.84875 3.3952,-0.54877 6.42327,-2.29807 9.52148,-3.68533 1.05942,-0.47437 2.13391,-0.91436 3.20087,-1.37154 5.56853,-2.36708 11.03527,-4.98925 16.26354,-8.04199 2.65317,-1.54916 6.51399,-4.03326 9.10643,-5.67861 5.19027,-3.4573 10.35108,-7.00293 15.1344,-11.01555 1.96295,-1.64667 3.95611,-3.50991 5.84588,-5.24156 5.29334,-4.97693 11.01246,-9.45741 16.91849,-13.67705 3.5709,-2.68721 7.65949,-4.50298 11.57216,-6.60598 1.75289,-0.83508 3.24235,-2.08869 4.56954,-3.48584 1.52847,-1.66714 2.87166,-3.48688 4.20979,-5.30658 1.19906,-1.61177 2.65062,-2.99545 4.04978,-4.42628 0.99708,-0.99276 1.81204,-2.13417 2.82623,-3.10881 1.04566,-1.10191 2.28711,-1.96073 3.50772,-2.85012 0.68415,-0.45123 1.40152,-0.87178 2.17375,-1.15335 3.94808,-1.55326 1.75143,-7.1367 -2.19665,-5.58343 l 0,0 c -1.23439,0.5011 -2.42118,1.11592 -3.51079,1.88776 -1.44543,1.05349 -2.89969,2.09541 -4.14727,3.38823 -1.04874,1.02064 -1.94096,2.16306 -2.94306,3.22505 -1.595,1.63145 -3.23668,3.22253 -4.59407,5.06722 -1.20247,1.63639 -2.4036,3.27736 -3.77403,4.77959 -0.844,0.95449 -1.86119,1.73915 -3.015,2.28344 -4.13271,2.22867 -8.44957,4.15677 -12.21745,7.00808 -6.10101,4.36393 -12.01228,8.99276 -17.48341,14.13507 -1.70645,1.56473 -3.77709,3.49706 -5.54949,4.98713 -4.60874,3.87461 -9.58985,7.28908 -14.59203,10.62736 -2.37736,1.5093 -6.35443,4.0654 -8.80405,5.49888 -5.04993,2.95515 -10.33438,5.487 -15.71632,7.7735 -1.12939,0.48524 -2.26623,0.95351 -3.38818,1.45573 -2.65405,1.18804 -5.24186,2.74546 -8.14537,3.23158 -2.10459,0.43802 -4.26458,0.5306 -6.39793,0.76614 -3.79129,0.40679 -7.57005,0.92877 -11.36654,1.29115 -5.73132,0.76537 -11.44606,1.79644 -17.25385,1.71716 -6.72291,0.24958 -13.43382,0.68462 -20.15215,1.0169 -6.51537,0.39478 -13.00301,1.12214 -19.47005,2.00322 -9.78315,1.37895 -19.58356,2.60601 -29.39778,3.74491 -9.50774,1.15971 -18.95631,2.74493 -28.48742,3.72057 -5.54743,0.60441 -11.06261,1.40049 -16.58314,2.20817 -4.22159,0.42215 -3.62457,6.39238 0.59702,5.97022 z"
       inkscape:connector-curvature="0" />
    <path
       style="display:inline;opacity:1;fill:#ff0000;fill-opacity:0.62745098;fill-rule:nonzero;stroke:#000000;stroke-width:2;stroke-linejoin:miter;stroke-miterlimit:4;stroke-dasharray:none;stroke-dashoffset:0;stroke-opacity:0.62745098"
       id="path4678"
       d="m 655.4893,599.02655 c 2.9582,-0.005 5.91601,0.0328 8.87295,-0.0614 5.01921,-0.27504 10.04468,-0.33575 15.07003,-0.38247 10.16965,-0.30093 20.32737,-0.86683 30.48993,-1.33423 8.84764,-0.28484 17.68838,-0.61375 26.51522,-1.28876 5.93108,-0.68145 11.87961,-0.29726 17.81209,0.087 4.879,0.42398 9.71209,-0.28807 14.54926,-0.8 5.57255,-0.64888 11.10838,-1.54946 16.6897,-2.1236 3.91356,-0.3679 7.82773,-0.72791 11.73935,-1.11625 2.86403,-0.2495 5.73183,-0.47381 8.58355,-0.84301 1.66841,-0.26525 3.34231,-0.48045 5.02847,-0.5868 1.13331,-0.0605 2.26868,-0.0569 3.40322,-0.0573 0.9882,-0.0127 1.97834,0.0791 2.95237,-0.15956 1.29027,-0.31612 1.84626,-0.68143 3.05547,-1.28031 3.33292,-1.80283 6.9198,-3.05803 10.39456,-4.54692 1.07451,-0.46041 5.53226,-2.47934 6.61272,-2.9672 7.4266,-3.26211 14.83416,-6.57188 22.05426,-10.27149 5.488,-3.26813 11.1439,-6.36004 16.07497,-10.45186 2.10044,-1.93675 3.72704,-4.30028 5.73376,-6.32455 1.29578,-1.30711 2.37048,-2.22356 3.75581,-3.4583 0.76879,-0.67846 1.54778,-1.34553 2.30636,-2.03539 2.36722,-2.15279 4.67193,-4.36378 7.12622,-6.42081 2.48144,-2.07979 2.66161,-2.14202 5.30954,-4.07471 2.90599,-2.10095 5.96579,-3.99624 8.8488,-6.12911 2.51388,-1.8598 4.92232,-3.89366 7.35055,-5.86379 2.47591,-2.09281 4.86273,-4.28679 7.22844,-6.5016 1.17526,-1.05017 2.42024,-2.01664 3.5995,-3.0643 1.49546,-1.22561 2.95323,-2.4935 4.37466,-3.804 0.81426,-0.7792 1.67016,-1.4553 2.63565,-2.02949 1.00581,-0.63783 2.01847,-1.26216 2.96922,-1.98 3.34994,-2.60344 -0.33189,-7.34097 -3.68183,-4.73753 l 0,0 c -0.72804,0.60976 -1.60208,1.02946 -2.37787,1.57468 -1.30788,0.79148 -2.50188,1.71038 -3.61321,2.76201 -1.39458,1.287 -2.83059,2.52491 -4.29504,3.73186 -1.21583,1.08379 -2.5118,2.06964 -3.71348,3.16838 -2.26017,2.11925 -4.54424,4.21434 -6.90655,6.22084 -2.31084,1.87522 -4.59766,3.8234 -6.99027,5.59323 -2.92334,2.1624 -6.02735,4.08175 -8.97091,6.21611 -2.86571,2.10043 -3.03287,2.14899 -5.70499,4.39041 -2.46446,2.06723 -4.78074,4.287 -7.15864,6.44921 -0.76692,0.69737 -1.55436,1.37183 -2.33154,2.05775 -1.61413,1.44263 -2.64819,2.31871 -4.15743,3.85211 -1.82489,1.8541 -3.35366,3.96304 -5.18855,5.8066 -4.54735,3.85105 -9.90582,6.60849 -14.96121,9.71341 -7.12888,3.65939 -14.45235,6.91491 -21.7854,10.14195 -0.80575,0.36384 -5.56493,2.51789 -6.41928,2.88392 -3.62476,1.55295 -7.36266,2.87027 -10.83946,4.75086 -0.0612,0.0325 -1.19509,0.76074 -1.52652,0.79051 -0.58288,0.0523 -1.17904,-0.0441 -1.76295,-0.003 -1.26169,5.1e-4 -2.5243,-0.002 -3.78446,0.0696 -1.8178,0.11791 -3.62467,0.33616 -5.42334,0.62523 -2.78884,0.36939 -5.59703,0.56868 -8.39794,0.82166 -3.91915,0.38911 -7.84084,0.74991 -11.76195,1.11854 -5.58669,0.57728 -11.12919,1.46769 -16.7063,2.12534 -4.49876,0.47687 -8.99078,1.17089 -13.52951,0.77916 -6.21375,-0.40237 -12.44541,-0.78338 -18.6575,-0.0821 -8.76622,0.67076 -17.54644,0.99296 -26.33328,1.27761 -10.08935,0.46416 -20.17388,1.02493 -30.2701,1.32816 -5.07205,0.0473 -10.14431,0.10832 -15.21018,0.38541 -2.89139,0.0972 -5.78421,0.0482 -8.67694,0.0582 -4.24264,0 -4.24264,6 0,6 z"
       inkscape:connector-curvature="0" />
    <path
       style="display:inline;opacity:1;fill:#ff0000;fill-opacity:0.62745098;fill-rule:nonzero;stroke:#000000;stroke-width:2;stroke-linejoin:miter;stroke-miterlimit:4;stroke-dasharray:none;stroke-dashoffset:0;stroke-opacity:0.62745098"
       id="path4680"
       d="m 654.35375,613.93659 c 3.3502,-0.79401 6.79462,-0.95216 10.21956,-1.12958 7.16812,-0.30347 14.32261,-0.83695 21.48133,-1.30305 4.94528,-0.42053 9.9144,-0.27527 14.86485,-0.57208 1.35792,-0.0814 2.71274,-0.20808 4.06911,-0.31213 1.33113,-0.1589 2.66287,-0.31273 3.99338,-0.47669 3.12511,-0.38512 4.81918,-0.57025 7.94111,-1.19038 2.86876,-0.56985 5.69716,-1.33044 8.56344,-1.9126 1.47805,-0.3002 2.96615,-0.54863 4.44923,-0.82294 1.53136,-0.26812 3.06308,-0.53421 4.59408,-0.80437 4.48512,-0.79146 8.95926,-1.5741 13.4851,-2.10332 3.7425,-0.43762 4.80654,-0.47888 8.55405,-0.76069 3.97887,-0.28049 7.94967,-0.73627 11.93544,-0.92206 3.34752,-0.15603 6.7033,-0.0635 10.05149,6.9e-4 2.91322,0.0122 5.82606,0.22259 8.73925,0.22417 2.32027,0.001 4.63687,-0.17712 6.95019,-0.33216 4.24488,-0.23201 8.48989,-0.44829 12.7346,-0.68779 3.31906,-0.1255 6.6325,-0.30193 9.94614,-0.52741 1.84123,-0.069 3.75815,-0.33917 5.58381,0.0515 1.21956,0.35741 2.46509,0.51883 3.72951,0.59901 2.50634,0.0175 4.95149,-0.65013 7.3224,-1.40024 3.29498,-1.00502 6.34115,-2.61057 9.4693,-4.01779 5.67599,-2.46578 11.22693,-5.19221 16.81882,-7.83858 6.59793,-3.34321 12.95569,-7.14216 19.39433,-10.78077 6.68552,-3.6411 12.60679,-8.48349 18.43357,-13.33928 4.47566,-3.91712 8.53222,-8.29893 13.14469,-12.06332 2.62875,-2.14542 4.25291,-3.18903 7.01791,-5.09972 3.83724,-2.62643 7.86872,-4.95612 12.26456,-6.5107 0.35457,-0.1254 5.05503,-1.5677 5.42043,-1.68014 3.8178,-1.15374 7.67907,-2.15178 11.4699,-3.39389 2.43847,-0.76837 4.59443,-2.12012 6.77314,-3.41383 1.37414,-0.77621 2.88281,-1.24305 4.30895,-1.91192 0.96887,-0.45589 0.47003,-0.20207 1.49196,-0.77038 3.68731,-2.09851 0.71957,-7.31315 -2.96774,-5.21465 l 0,0 c -0.6104,0.36383 -0.25024,0.16615 -1.09588,0.56409 -1.5839,0.7641 -3.29862,1.2374 -4.80138,2.17425 -1.8018,1.07053 -3.56489,2.22606 -5.57987,2.87156 -3.75436,1.23409 -7.58419,2.20851 -11.36381,3.36017 -0.93771,0.28859 -5.08065,1.55448 -5.86442,1.83607 -4.81736,1.73075 -9.25762,4.27017 -13.47067,7.15592 -3.07127,2.12919 -4.61401,3.11237 -7.5488,5.51306 -4.5733,3.74103 -8.61902,8.06664 -13.04154,11.97532 -5.54615,4.62776 -11.17656,9.25527 -17.54298,12.72381 -6.3129,3.56762 -12.54775,7.28976 -19.00954,10.58129 -5.55776,2.63165 -11.07512,5.34184 -16.71752,7.79178 -2.91906,1.31849 -5.75995,2.82335 -8.83244,3.77323 -1.66366,0.54057 -3.38241,1.02591 -5.13651,1.12528 -1.04438,-0.0564 -2.04956,-0.2405 -3.05991,-0.52118 -2.32356,-0.36681 -4.67747,-0.3271 -7.01761,-0.12608 -3.29061,0.22392 -6.58087,0.39818 -9.87689,0.5231 -4.26593,0.24082 -8.53216,0.45766 -12.79823,0.69171 -2.12693,0.14292 -4.2621,0.32193 -6.39547,0.32066 -2.92607,-0.002 -5.85178,-0.21318 -8.77788,-0.22504 -3.52513,-0.0669 -7.05409,-0.15253 -10.57842,0.0124 -3.99872,0.18717 -7.98259,0.64209 -11.97436,0.92487 -3.89841,0.29515 -4.98928,0.33746 -8.88319,0.79468 -4.61072,0.54137 -9.16996,1.3358 -13.73946,2.14226 -1.55058,0.27365 -3.10186,0.5433 -4.65278,0.81495 -1.55201,0.28835 -3.10906,0.55076 -4.65602,0.86505 -2.77192,0.56316 -5.50653,1.30136 -8.28002,1.85679 -3.03511,0.60783 -4.57541,0.76624 -7.63925,1.14633 -1.2461,0.15459 -2.49317,0.30114 -3.73976,0.4517 -1.28662,0.0999 -2.57172,0.22165 -3.85985,0.29966 -4.99592,0.30255 -10.01169,0.14992 -15.0024,0.57945 -7.13289,0.46448 -14.26151,0.99672 -21.4038,1.2985 -3.60149,0.18884 -7.23185,0.35025 -10.75575,1.18175 -4.2,0.6 -3.35148,6.5397 0.84852,5.9397 z"
       inkscape:connector-curvature="0" />
    <path
       style="display:inline;opacity:1;fill:#ff0000;fill-opacity:0.62745098;fill-rule:nonzero;stroke:#000000;stroke-width:2;stroke-linejoin:miter;stroke-miterlimit:4;stroke-dasharray:none;stroke-dashoffset:0;stroke-opacity:0.62745098"
       id="path4682"
       d="m 653.9893,571.52655 c 2.13753,0 4.27507,0 6.4126,0 3.07146,-0.16692 6.14031,-0.33632 9.21586,-0.41027 5.65515,-0.14822 11.30993,0.0776 16.96313,0.20856 5.42438,-0.0918 10.81823,0.49291 16.22863,0.7332 5.49539,0.25551 10.97917,-0.1175 16.46156,-0.44404 5.38586,-0.25813 10.77997,-0.62499 16.17285,-0.43414 3.74481,0.22218 7.48382,0.52788 11.22037,0.85789 3.17575,0.41751 6.34175,0.0742 9.48824,-0.37379 2.27666,-0.34859 4.57436,-0.50685 6.87387,-0.59397 1.86344,-0.0598 3.7281,-0.0518 5.59223,-0.051 1.7682,0.0126 3.54958,-0.13771 5.28363,-0.48663 1.15965,-0.144 2.13967,-0.81859 3.22181,-1.17195 1.18335,-0.25406 2.40213,-0.2814 3.60756,-0.31754 1.6907,-0.13325 3.37529,-0.3278 5.06776,-0.43947 1.08602,-8e-4 2.12939,-0.32635 3.19733,-0.47196 2.0124,-0.45783 3.78473,-1.53666 5.66612,-2.34323 4.72248,-1.96949 9.09332,-4.66088 13.52237,-7.19841 5.41877,-3.00445 10.93002,-5.8312 16.25371,-9.00559 4.80231,-3.0533 9.75126,-5.85352 14.7809,-8.51126 0.7192,-0.40295 1.44005,-0.80299 2.15761,-1.20886 2.03502,-1.15105 2.25982,-1.23165 4.22528,-2.65957 2.42081,-1.75872 4.61901,-3.78483 6.86264,-5.75796 5.79176,-4.61205 11.70228,-9.0708 17.55297,-13.60764 4.98637,-3.70295 9.7884,-7.62324 14.92733,-11.11744 4.00871,-2.64535 8.17494,-5.0341 12.30514,-7.481 2.52413,-1.52291 4.87499,-3.3003 7.06045,-5.27382 1.32504,-0.98612 2.56787,-2.08352 3.70384,-3.28167 0.19588,-0.25197 0.39177,-0.50394 0.58765,-0.75591 2.54302,-3.39603 -2.2597,-6.9924 -4.80272,-3.59636 l 0,0 c -0.0581,0.0872 -0.11615,0.17436 -0.17423,0.26155 -0.99255,1.10031 -2.18725,2.00252 -3.34099,2.92406 -1.88291,1.70919 -3.91573,3.24019 -6.09224,4.56006 -4.23804,2.51079 -8.51233,4.96336 -12.62254,7.68274 -5.23885,3.56802 -10.14786,7.55243 -15.22859,11.33644 -5.94785,4.61288 -11.96119,9.14074 -17.83851,13.84354 -2.59327,2.28082 -5.13091,4.70044 -8.06604,6.55022 -0.64768,0.40817 -1.32795,0.76219 -1.99411,1.13944 -0.67407,0.38173 -1.35104,0.75833 -2.02657,1.13749 -5.12097,2.70704 -10.16196,5.55597 -15.05251,8.66397 -5.28995,3.16112 -10.77907,5.95473 -16.16119,8.95148 -4.23098,2.42406 -8.40149,5.00648 -12.9105,6.89278 -1.38706,0.59837 -2.80676,1.30406 -4.14096,1.91485 -0.91975,0.13431 -1.81955,0.39494 -2.74924,0.42525 -1.6214,0.10832 -3.23705,0.27692 -4.85473,0.42912 -1.86694,0.0588 -3.76278,0.12472 -5.5546,0.70612 -0.80184,0.31928 -1.53209,0.75795 -2.38635,0.9222 -1.26325,0.37332 -2.68718,0.27 -3.98493,0.34496 -1.94145,-8.2e-4 -3.88346,-0.009 -5.82414,0.0554 -2.50588,0.0967 -5.00967,0.27146 -7.49089,0.64959 -2.69252,0.38396 -5.39467,0.71746 -8.11402,0.33705 -3.84513,-0.33956 -7.69289,-0.65468 -11.54685,-0.87777 -5.57991,-0.17847 -11.15876,0.15495 -16.73096,0.44137 -5.27632,0.31427 -10.55318,0.68375 -15.84229,0.43918 -5.45158,-0.2351 -10.88661,-0.8339 -16.35227,-0.73734 -5.74781,-0.13307 -11.49724,-0.36067 -17.24703,-0.20841 -3.02704,0.0736 -6.04865,0.22549 -9.07084,0.40851 -2.13753,0 -4.27507,0 -6.4126,0 -4.24264,0 -4.24264,6 0,6 z"
       inkscape:connector-curvature="0" />
  </g>
</svg>
